<svg width="386" height="386" viewBox="0 0 386 386" fill="none" xmlns="http://www.w3.org/2000/svg">
<path d="M192.95 385.9C299.513 385.9 385.9 299.513 385.9 192.95C385.9 86.3866 299.513 0 192.95 0C86.3866 0 0 86.3866 0 192.95C0 299.513 86.3866 385.9 192.95 385.9Z" fill="url(#paint0_linear_3_14)"/>
<path d="M40.0312 248V138.909H69.6477V183.014H71.1392L103.952 138.909H138.469L101.608 187.489L139.321 248H103.952L79.4489 207.091L69.6477 219.875V248H40.0312ZM246.055 193.455C246.055 205.599 243.693 215.844 238.97 224.19C234.247 232.499 227.873 238.803 219.847 243.099C211.822 247.361 202.873 249.491 193.001 249.491C183.058 249.491 174.073 247.343 166.048 243.046C158.058 238.714 151.701 232.393 146.978 224.083C142.291 215.738 139.947 205.528 139.947 193.455C139.947 181.31 142.291 171.082 146.978 162.773C151.701 154.428 158.058 148.124 166.048 143.863C174.073 139.566 183.058 137.418 193.001 137.418C202.873 137.418 211.822 139.566 219.847 143.863C227.873 148.124 234.247 154.428 238.97 162.773C243.693 171.082 246.055 181.31 246.055 193.455ZM215.586 193.455C215.586 186.92 214.716 181.416 212.976 176.942C211.271 172.432 208.732 169.023 205.359 166.714C202.021 164.371 197.901 163.199 193.001 163.199C188.1 163.199 183.963 164.371 180.59 166.714C177.252 169.023 174.713 172.432 172.972 176.942C171.268 181.416 170.416 186.92 170.416 193.455C170.416 199.989 171.268 205.511 172.972 210.021C174.713 214.495 177.252 217.904 180.59 220.248C183.963 222.556 188.1 223.71 193.001 223.71C197.901 223.71 202.021 222.556 205.359 220.248C208.732 217.904 211.271 214.495 212.976 210.021C214.716 205.511 215.586 199.989 215.586 193.455ZM318.565 173C318.281 169.449 316.949 166.679 314.57 164.69C312.226 162.702 308.657 161.707 303.863 161.707C300.809 161.707 298.305 162.08 296.352 162.826C294.435 163.536 293.014 164.513 292.091 165.756C291.168 166.999 290.688 168.419 290.653 170.017C290.582 171.331 290.813 172.521 291.345 173.586C291.913 174.616 292.801 175.557 294.009 176.409C295.216 177.226 296.761 177.972 298.643 178.646C300.525 179.321 302.762 179.925 305.354 180.457L314.303 182.375C320.34 183.653 325.507 185.34 329.804 187.435C334.101 189.531 337.616 191.999 340.351 194.839C343.085 197.645 345.092 200.805 346.37 204.321C347.684 207.837 348.359 211.672 348.394 215.827C348.359 223 346.565 229.072 343.014 234.044C339.463 239.016 334.385 242.798 327.78 245.39C321.21 247.982 313.309 249.278 304.076 249.278C294.594 249.278 286.32 247.876 279.254 245.07C272.222 242.265 266.754 237.95 262.847 232.126C258.977 226.267 257.023 218.774 256.988 209.648H285.113C285.29 212.986 286.125 215.791 287.616 218.064C289.108 220.337 291.203 222.059 293.902 223.231C296.636 224.403 299.886 224.989 303.65 224.989C306.81 224.989 309.456 224.598 311.587 223.817C313.717 223.036 315.333 221.952 316.434 220.567C317.535 219.183 318.103 217.602 318.138 215.827C318.103 214.158 317.553 212.702 316.487 211.459C315.457 210.18 313.753 209.044 311.374 208.05C308.994 207.02 305.781 206.061 301.732 205.173L290.866 202.83C281.207 200.734 273.589 197.237 268.014 192.336C262.474 187.4 259.722 180.67 259.758 172.148C259.722 165.223 261.569 159.168 265.298 153.984C269.062 148.763 274.264 144.697 280.905 141.786C287.581 138.874 295.234 137.418 303.863 137.418C312.67 137.418 320.287 138.891 326.714 141.839C333.142 144.786 338.096 148.941 341.576 154.303C345.092 159.63 346.867 165.862 346.903 173H318.565Z" fill="white"/>
<defs>
<linearGradient id="paint0_linear_3_14" x1="192.95" y1="0" x2="192.95" y2="385.9" gradientUnits="userSpaceOnUse">
<stop stop-color="#462300"/>
<stop offset="1" stop-color="#994D00"/>
</linearGradient>
</defs>
</svg>
