<svg width="1083" height="1083" viewBox="0 0 1083 1083" fill="none" xmlns="http://www.w3.org/2000/svg">
<rect width="1083" height="1083" fill="#D9D9D9"/>
<path d="M107.142 434.214H134.101L152.645 479.405H153.58L172.124 434.214H199.083V514H177.89V467.874H177.267L159.502 513.377H146.724L128.959 467.562H128.336V514H107.142V434.214ZM230.074 514H206.7L233.035 434.214H262.643L288.979 514H265.604L248.151 456.186H247.528L230.074 514ZM225.711 482.522H269.656V498.728H225.711V482.522ZM336.566 459.147C336.358 456.55 335.384 454.524 333.644 453.07C331.93 451.615 329.32 450.888 325.814 450.888C323.58 450.888 321.749 451.161 320.321 451.706C318.918 452.226 317.879 452.94 317.204 453.849C316.529 454.758 316.178 455.797 316.152 456.966C316.1 457.926 316.269 458.797 316.658 459.576C317.074 460.329 317.723 461.017 318.606 461.64C319.489 462.238 320.619 462.783 321.996 463.277C323.372 463.77 325.008 464.212 326.904 464.601L333.449 466.004C337.865 466.939 341.644 468.172 344.786 469.705C347.929 471.237 350.5 473.042 352.5 475.12C354.5 477.172 355.967 479.483 356.902 482.054C357.863 484.626 358.356 487.431 358.382 490.469C358.356 495.716 357.045 500.157 354.448 503.793C351.85 507.429 348.137 510.195 343.306 512.091C338.501 513.987 332.722 514.935 325.969 514.935C319.035 514.935 312.983 513.909 307.815 511.857C302.673 509.806 298.673 506.65 295.816 502.391C292.985 498.105 291.557 492.625 291.531 485.95H312.1C312.23 488.392 312.841 490.443 313.931 492.106C315.022 493.768 316.555 495.027 318.528 495.885C320.528 496.742 322.905 497.17 325.658 497.17C327.969 497.17 329.904 496.884 331.462 496.313C333.021 495.742 334.203 494.95 335.008 493.937C335.813 492.924 336.228 491.768 336.254 490.469C336.228 489.249 335.826 488.184 335.047 487.275C334.293 486.34 333.047 485.509 331.307 484.782C329.567 484.028 327.216 483.327 324.255 482.678L316.308 480.964C309.243 479.431 303.672 476.873 299.595 473.289C295.543 469.679 293.53 464.757 293.556 458.524C293.53 453.459 294.881 449.031 297.608 445.239C300.361 441.421 304.166 438.447 309.023 436.318C313.905 434.188 319.502 433.123 325.814 433.123C332.255 433.123 337.826 434.201 342.527 436.357C347.227 438.512 350.851 441.551 353.396 445.473C355.967 449.369 357.266 453.927 357.292 459.147H336.566ZM364.44 451.667V434.214H433.786V451.667H409.788V514H388.439V451.667H364.44ZM441.938 514V434.214H499.44V451.667H463.598V465.38H496.479V482.834H463.598V496.547H499.284V514H441.938ZM510.182 514V434.214H544.621C550.543 434.214 555.724 435.292 560.165 437.448C564.607 439.603 568.061 442.707 570.528 446.759C572.995 450.81 574.229 455.667 574.229 461.329C574.229 467.043 572.957 471.86 570.411 475.782C567.892 479.704 564.347 482.665 559.776 484.665C555.231 486.664 549.919 487.664 543.842 487.664H523.272V470.835H539.479C542.024 470.835 544.193 470.523 545.985 469.9C547.803 469.25 549.192 468.224 550.153 466.822C551.14 465.419 551.634 463.588 551.634 461.329C551.634 459.043 551.14 457.186 550.153 455.758C549.192 454.303 547.803 453.239 545.985 452.563C544.193 451.862 542.024 451.511 539.479 451.511H531.843V514H510.182ZM556.932 477.379L576.878 514H553.348L533.869 477.379H556.932ZM634.458 515.091C627.965 515.091 622.407 513.805 617.784 511.234C613.161 508.637 609.616 505.027 607.149 500.404C604.681 495.755 603.448 490.365 603.448 484.236C603.448 478.107 604.681 472.731 607.149 468.108C609.616 463.459 613.161 459.848 617.784 457.277C622.407 454.68 627.965 453.381 634.458 453.381C640.951 453.381 646.509 454.68 651.132 457.277C655.755 459.848 659.3 463.459 661.768 468.108C664.235 472.731 665.469 478.107 665.469 484.236C665.469 490.365 664.235 495.755 661.768 500.404C659.3 505.027 655.755 508.637 651.132 511.234C646.509 513.805 640.951 515.091 634.458 515.091ZM634.614 499.196C636.432 499.196 638.003 498.586 639.328 497.365C640.652 496.144 641.678 494.404 642.406 492.145C643.133 489.885 643.496 487.197 643.496 484.08C643.496 480.938 643.133 478.25 642.406 476.016C641.678 473.756 640.652 472.016 639.328 470.796C638.003 469.575 636.432 468.965 634.614 468.965C632.692 468.965 631.043 469.575 629.666 470.796C628.29 472.016 627.238 473.756 626.511 476.016C625.784 478.25 625.42 480.938 625.42 484.08C625.42 487.197 625.784 489.885 626.511 492.145C627.238 494.404 628.29 496.144 629.666 497.365C631.043 498.586 632.692 499.196 634.614 499.196ZM710.037 454.161V469.744H669.988V454.161H710.037ZM677.624 514V452.446C677.624 447.512 678.507 443.421 680.273 440.175C682.039 436.928 684.532 434.5 687.753 432.889C690.973 431.279 694.765 430.474 699.128 430.474C701.855 430.474 704.505 430.682 707.076 431.097C709.673 431.513 711.595 431.877 712.842 432.188L709.725 447.616C708.946 447.382 708.037 447.2 706.998 447.07C705.959 446.914 705.05 446.836 704.271 446.836C702.245 446.836 700.882 447.265 700.18 448.122C699.479 448.979 699.128 450.109 699.128 451.511V514H677.624ZM808.912 434.214V514H790.836L762.007 472.081H761.539V514H739.878V434.214H758.267L786.628 475.977H787.251V434.214H808.912ZM866.375 434.214H888.036V485.327C888.036 491.404 886.581 496.664 883.672 501.105C880.789 505.52 876.764 508.935 871.595 511.351C866.427 513.74 860.427 514.935 853.597 514.935C846.714 514.935 840.689 513.74 835.52 511.351C830.352 508.935 826.326 505.52 823.443 501.105C820.586 496.664 819.158 491.404 819.158 485.327V434.214H840.819V483.457C840.819 485.924 841.364 488.132 842.455 490.08C843.546 492.002 845.052 493.508 846.974 494.599C848.922 495.69 851.129 496.235 853.597 496.235C856.09 496.235 858.298 495.69 860.22 494.599C862.142 493.508 863.648 492.002 864.739 490.08C865.83 488.132 866.375 485.924 866.375 483.457V434.214ZM921.549 434.214L934.639 457.433H935.262L948.508 434.214H972.662L948.82 474.107L973.597 514H948.82L935.262 490.314H934.639L921.082 514H896.46L920.926 474.107L897.239 434.214H921.549ZM107.454 647V587.161H127.868V598.536H128.491C129.738 594.796 131.868 591.836 134.881 589.654C137.893 587.472 141.477 586.381 145.633 586.381C149.84 586.381 153.463 587.498 156.502 589.732C159.541 591.939 161.372 594.874 161.995 598.536H162.619C163.632 594.874 165.787 591.939 169.086 589.732C172.384 587.498 176.254 586.381 180.695 586.381C186.435 586.381 191.084 588.225 194.642 591.913C198.226 595.601 200.018 600.51 200.018 606.64V647H178.513V612.094C178.513 609.47 177.851 607.419 176.527 605.938C175.202 604.432 173.423 603.679 171.189 603.679C168.982 603.679 167.229 604.432 165.93 605.938C164.657 607.419 164.021 609.47 164.021 612.094V647H143.451V612.094C143.451 609.47 142.789 607.419 141.464 605.938C140.14 604.432 138.361 603.679 136.127 603.679C134.647 603.679 133.374 604.016 132.309 604.692C131.244 605.367 130.413 606.341 129.816 607.613C129.245 608.86 128.959 610.354 128.959 612.094V647H107.454ZM227.299 647.935C223.481 647.935 220.104 647.312 217.17 646.065C214.261 644.792 211.975 642.87 210.313 640.299C208.651 637.728 207.82 634.456 207.82 630.482C207.82 627.209 208.378 624.417 209.495 622.106C210.612 619.768 212.17 617.859 214.17 616.379C216.17 614.899 218.494 613.769 221.143 612.99C223.818 612.211 226.701 611.704 229.792 611.47C233.142 611.211 235.83 610.899 237.856 610.535C239.908 610.146 241.388 609.613 242.297 608.938C243.206 608.237 243.661 607.315 243.661 606.172V606.016C243.661 604.458 243.064 603.263 241.869 602.432C240.674 601.601 239.142 601.185 237.272 601.185C235.22 601.185 233.545 601.64 232.246 602.549C230.974 603.432 230.207 604.796 229.948 606.64H210.157C210.417 603.003 211.573 599.653 213.624 596.588C215.702 593.498 218.728 591.03 222.702 589.186C226.675 587.316 231.636 586.381 237.584 586.381C241.869 586.381 245.713 586.888 249.115 587.901C252.517 588.888 255.413 590.277 257.803 592.069C260.192 593.835 262.01 595.913 263.257 598.303C264.529 600.666 265.166 603.237 265.166 606.016V647H245.063V638.585H244.596C243.401 640.819 241.947 642.624 240.233 644C238.544 645.377 236.61 646.377 234.428 647C232.272 647.623 229.896 647.935 227.299 647.935ZM234.311 634.378C235.947 634.378 237.48 634.04 238.908 633.365C240.363 632.689 241.544 631.715 242.453 630.443C243.362 629.17 243.817 627.625 243.817 625.807V620.82C243.245 621.054 242.635 621.275 241.986 621.483C241.362 621.69 240.687 621.885 239.96 622.067C239.259 622.249 238.506 622.418 237.7 622.573C236.921 622.729 236.103 622.872 235.246 623.002C233.584 623.262 232.22 623.69 231.155 624.287C230.117 624.859 229.337 625.573 228.818 626.43C228.324 627.261 228.078 628.196 228.078 629.235C228.078 630.897 228.662 632.17 229.831 633.053C231 633.936 232.493 634.378 234.311 634.378ZM330.138 606.64H310.347C310.243 605.419 309.815 604.367 309.062 603.484C308.308 602.601 307.335 601.926 306.14 601.458C304.971 600.965 303.672 600.718 302.244 600.718C300.4 600.718 298.816 601.056 297.491 601.731C296.167 602.406 295.517 603.367 295.543 604.614C295.517 605.497 295.894 606.315 296.673 607.068C297.478 607.821 299.023 608.406 301.309 608.821L313.464 611.003C319.593 612.12 324.151 614.003 327.138 616.652C330.151 619.275 331.67 622.794 331.696 627.209C331.67 631.469 330.398 635.17 327.878 638.312C325.385 641.429 321.97 643.844 317.632 645.559C313.321 647.247 308.399 648.091 302.867 648.091C293.725 648.091 286.57 646.221 281.401 642.481C276.259 638.741 273.389 633.806 272.792 627.677H294.141C294.426 629.573 295.361 631.04 296.946 632.079C298.556 633.092 300.582 633.598 303.023 633.598C304.997 633.598 306.62 633.261 307.893 632.586C309.192 631.91 309.854 630.949 309.88 629.703C309.854 628.56 309.282 627.651 308.166 626.976C307.075 626.3 305.361 625.755 303.023 625.339L292.427 623.469C286.323 622.405 281.752 620.379 278.713 617.392C275.675 614.405 274.168 610.561 274.194 605.86C274.168 601.705 275.259 598.186 277.467 595.303C279.7 592.394 282.882 590.186 287.011 588.68C291.167 587.148 296.089 586.381 301.777 586.381C310.425 586.381 317.243 588.173 322.229 591.758C327.242 595.342 329.878 600.302 330.138 606.64ZM375.621 587.161V602.744H336.196V587.161H375.621ZM343.832 572.824H365.336V627.755C365.336 628.586 365.479 629.287 365.765 629.858C366.051 630.404 366.492 630.819 367.09 631.105C367.687 631.365 368.453 631.495 369.388 631.495C370.037 631.495 370.791 631.417 371.648 631.261C372.531 631.105 373.18 630.975 373.596 630.871L376.712 645.987C375.751 646.273 374.375 646.623 372.583 647.039C370.817 647.455 368.713 647.727 366.271 647.857C361.337 648.117 357.194 647.61 353.844 646.338C350.493 645.039 347.974 643 346.286 640.221C344.598 637.442 343.78 633.962 343.832 629.781V572.824ZM412.427 648.091C406.038 648.091 400.532 646.87 395.909 644.429C391.312 641.961 387.767 638.429 385.273 633.832C382.806 629.209 381.572 623.677 381.572 617.236C381.572 611.055 382.819 605.653 385.312 601.03C387.805 596.407 391.325 592.809 395.87 590.238C400.415 587.667 405.778 586.381 411.959 586.381C416.479 586.381 420.569 587.083 424.231 588.485C427.893 589.888 431.023 591.926 433.62 594.602C436.217 597.251 438.217 600.471 439.62 604.263C441.022 608.055 441.723 612.327 441.723 617.08V622.067H388.273V610.224H421.933C421.907 608.51 421.465 607.003 420.608 605.705C419.777 604.38 418.647 603.354 417.219 602.627C415.816 601.874 414.219 601.497 412.427 601.497C410.687 601.497 409.09 601.874 407.635 602.627C406.181 603.354 405.012 604.367 404.129 605.666C403.272 606.964 402.817 608.484 402.765 610.224V623.002C402.765 624.924 403.168 626.638 403.973 628.144C404.778 629.651 405.934 630.832 407.44 631.69C408.947 632.547 410.765 632.975 412.894 632.975C414.375 632.975 415.725 632.767 416.946 632.352C418.193 631.936 419.258 631.339 420.141 630.56C421.024 629.755 421.673 628.794 422.088 627.677H441.723C441.048 631.832 439.451 635.442 436.931 638.507C434.412 641.546 431.075 643.909 426.919 645.598C422.79 647.26 417.959 648.091 412.427 648.091ZM450.499 647V587.161H471.38V598.536H472.003C473.094 594.329 474.821 591.251 477.185 589.303C479.574 587.355 482.366 586.381 485.561 586.381C486.496 586.381 487.418 586.459 488.327 586.615C489.262 586.745 490.158 586.94 491.015 587.2V605.549C489.95 605.185 488.638 604.912 487.08 604.731C485.522 604.549 484.184 604.458 483.067 604.458C480.964 604.458 479.068 604.938 477.38 605.899C475.717 606.834 474.406 608.159 473.445 609.873C472.484 611.561 472.003 613.548 472.003 615.834V647H450.499ZM566.788 567.214V647H548.712L519.883 605.081H519.415V647H497.755V567.214H516.143L544.504 608.977H545.128V567.214H566.788ZM624.251 567.214H645.912V618.327C645.912 624.404 644.457 629.664 641.549 634.105C638.666 638.52 634.64 641.935 629.472 644.351C624.303 646.74 618.304 647.935 611.473 647.935C604.59 647.935 598.565 646.74 593.396 644.351C588.228 641.935 584.202 638.52 581.319 634.105C578.463 629.664 577.034 624.404 577.034 618.327V567.214H598.695V616.457C598.695 618.924 599.24 621.132 600.331 623.08C601.422 625.002 602.928 626.508 604.85 627.599C606.798 628.69 609.006 629.235 611.473 629.235C613.966 629.235 616.174 628.69 618.096 627.599C620.018 626.508 621.524 625.002 622.615 623.08C623.706 621.132 624.251 618.924 624.251 616.457V567.214ZM679.425 567.214L692.515 590.433H693.139L706.384 567.214H730.538L706.696 607.107L731.473 647H706.696L693.139 623.314H692.515L678.958 647H654.336L678.802 607.107L655.116 567.214H679.425Z" fill="#585858"/>
</svg>
