<svg width="386" height="386" viewBox="0 0 386 386" fill="none" xmlns="http://www.w3.org/2000/svg">
<circle cx="192.95" cy="192.95" r="192.95" fill="url(#paint0_linear_3_17)"/>
<path d="M44.2725 211.627C44.2725 212.075 44.0668 212.001 43.6555 211.402C43.2815 210.841 42.9076 209.776 42.5337 208.205C42.4589 207.869 42.4028 207.513 42.3654 207.139C42.328 206.728 42.3093 206.317 42.3093 205.905C42.3093 204.26 42.515 202.372 42.9263 200.24C43.3376 198.072 43.8424 195.828 44.4407 193.51C45.0764 191.154 45.6934 188.873 46.2917 186.667C46.89 184.46 47.3948 182.497 47.8061 180.777C48.2175 179.02 48.4231 177.692 48.4231 176.795C48.4231 176.346 48.3857 176.047 48.311 175.897C48.2362 175.748 48.1988 175.617 48.1988 175.505C48.1988 175.131 48.4979 174.944 49.0962 174.944C49.7319 174.944 50.5172 175.187 51.452 175.673C52.3868 176.122 53.1908 176.795 53.8639 177.692C54.537 178.59 54.7987 179.655 54.6491 180.889C54.6491 181.001 54.6304 181.114 54.5931 181.226C54.5931 181.338 54.5744 181.469 54.537 181.618C55.6962 182.852 56.7432 184.311 57.678 185.993C58.6128 187.676 59.5851 189.452 60.5947 191.322C61.6417 193.154 62.8383 194.987 64.1845 196.819C64.1845 196.894 64.3901 197.23 64.8015 197.828C65.2502 198.389 65.8111 199.1 66.4842 199.96C67.1572 200.783 67.8677 201.643 68.6156 202.54C69.4008 203.437 70.0926 204.26 70.6909 205.008V204.447C70.7657 203.849 70.9153 202.764 71.1396 201.194C71.4014 199.623 71.7005 197.791 72.0371 195.697C72.411 193.566 72.8036 191.378 73.215 189.134C73.6263 186.891 74.0376 184.778 74.449 182.796C74.8603 180.777 75.2529 179.113 75.6268 177.804C75.6268 177.804 75.8138 177.767 76.1877 177.692C76.5617 177.617 76.9356 177.58 77.3095 177.58C77.7209 177.58 78.0574 177.636 78.3192 177.748C78.6183 177.86 78.7679 178.103 78.7679 178.477C78.7679 178.664 78.7492 178.814 78.7118 178.926C78.5248 179.562 78.2444 180.646 77.8705 182.179C77.4965 183.712 77.0665 185.526 76.5804 187.62C76.0943 189.714 75.5708 191.902 75.0099 194.183C74.4863 196.464 73.9628 198.688 73.4393 200.857C72.9158 203.026 72.4297 204.952 71.981 206.635L72.3175 206.915C72.9532 207.439 73.3832 207.906 73.6076 208.317C73.832 208.691 73.9441 208.972 73.9441 209.159C73.9441 209.42 73.7572 209.551 73.3832 209.551C72.8971 209.551 72.224 209.364 71.364 208.99C71.1396 209.776 70.934 210.393 70.747 210.841C70.56 211.29 70.4853 211.514 70.5226 211.514C70.4853 211.552 70.4105 211.571 70.2983 211.571C70.0365 211.571 69.9057 211.271 69.9057 210.673C69.9057 210.374 69.943 210.019 70.0178 209.607C70.0926 209.196 70.1487 208.747 70.1861 208.261C68.1669 206.952 66.2785 205.419 64.521 203.662C62.8009 201.867 61.1182 199.922 59.4729 197.828C58.3137 196.333 57.3228 195.099 56.5001 194.126C55.7149 193.117 54.967 192.219 54.2565 191.434C53.5834 190.612 52.8543 189.733 52.069 188.798C51.2837 190.63 50.4237 192.556 49.4889 194.575C48.5914 196.594 47.7127 198.576 46.8526 200.521C46.03 202.428 45.3569 204.204 44.8334 205.849C44.3099 207.457 44.0481 208.803 44.0481 209.888C44.0481 210.075 44.0481 210.243 44.0481 210.393C44.0855 210.58 44.1229 210.748 44.1603 210.897C44.1977 211.047 44.2164 211.178 44.2164 211.29C44.2538 211.44 44.2725 211.552 44.2725 211.627ZM95.7899 212.917C95.3786 212.917 94.9673 212.898 94.5559 212.861C94.182 212.861 93.7894 212.842 93.3781 212.805C90.1622 212.468 87.6756 211.87 85.9181 211.01C84.198 210.15 83.0388 208.86 82.4405 207.139C81.8422 205.382 81.5804 203.045 81.6552 200.128C81.6926 199.717 81.7487 199.287 81.8235 198.838C81.9357 198.352 81.9918 197.866 81.9918 197.38H81.4869C81.1504 197.38 80.9073 197.23 80.7578 196.931C80.6456 196.594 80.5895 196.202 80.5895 195.753C80.5895 195.192 80.683 194.65 80.87 194.126C81.0943 193.603 81.3374 193.341 81.5991 193.341C81.7861 193.341 82.0105 193.304 82.2722 193.229C82.5714 193.154 82.9079 193.117 83.2818 193.117C84.0671 191.098 85.1515 189.097 86.5351 187.115C87.9186 185.133 89.6013 183.338 91.5832 181.731C93.6024 180.123 95.9395 178.926 98.5944 178.141C100.95 177.468 103.156 177.131 105.213 177.131C107.307 177.131 109.121 177.43 110.654 178.029C112.224 178.59 113.271 179.337 113.795 180.272C113.944 180.534 114.019 180.833 114.019 181.17C114.019 181.731 113.832 182.254 113.458 182.74C113.122 183.226 112.767 183.469 112.393 183.469C111.944 183.469 111.72 183.002 111.72 182.067C111.72 179.936 110.168 178.87 107.064 178.87C106.129 178.87 105.063 178.982 103.867 179.207C102.708 179.393 101.418 179.73 99.9967 180.216C98.6131 180.665 97.1735 181.488 95.6777 182.684C94.2194 183.881 92.8358 185.302 91.5271 186.947C90.2557 188.592 89.1713 190.35 88.2739 192.219L88.7787 192.163C89.9753 192.014 91.3588 191.92 92.9293 191.883C94.4999 191.808 96.0891 191.771 97.697 191.771C99.6788 191.771 101.549 191.808 103.306 191.883C105.101 191.958 106.559 192.07 107.681 192.219C108.803 192.369 109.364 192.537 109.364 192.724C109.364 192.949 108.429 193.173 106.559 193.397C103.418 193.771 100.09 194.276 96.5752 194.912C93.0976 195.547 89.807 196.127 86.7033 196.651C86.5911 197.286 86.4977 197.922 86.4229 198.558C86.3481 199.193 86.3294 199.829 86.3668 200.465C86.5164 203.082 87.2268 205.251 88.4982 206.971C89.7696 208.691 91.5271 209.757 93.7707 210.168C94.369 210.28 94.9673 210.355 95.5656 210.393C96.2013 210.43 96.8369 210.449 97.4726 210.449C99.1553 210.449 100.838 210.299 102.521 210C104.203 209.701 105.755 209.308 107.176 208.822C108.635 208.299 109.85 207.719 110.822 207.083C111.794 206.41 112.393 205.7 112.617 204.952C112.879 204.167 113.178 203.531 113.514 203.045C113.851 202.559 114.169 202.316 114.468 202.316C115.029 202.316 115.309 203.176 115.309 204.896C115.309 206.018 114.692 207.065 113.458 208.037C112.224 208.972 110.616 209.813 108.635 210.561C106.653 211.309 104.521 211.888 102.24 212.3C99.9967 212.711 97.8466 212.917 95.7899 212.917ZM138.627 212.131C136.944 212.131 135.13 211.926 133.186 211.514C129.484 210.729 126.436 209.551 124.043 207.981C121.65 206.41 119.874 204.615 118.715 202.596C117.555 200.577 116.976 198.502 116.976 196.37C116.976 193.94 117.686 191.565 119.107 189.247C120.528 186.928 122.622 184.909 125.389 183.189C128.156 181.431 131.522 180.216 135.486 179.543C137.505 179.207 139.655 179.038 141.936 179.038C143.656 179.038 145.301 179.15 146.872 179.375C148.442 179.562 149.788 179.842 150.91 180.216C152.069 180.59 152.855 181.076 153.266 181.674C153.453 181.899 153.547 182.217 153.547 182.628C153.547 183.152 153.416 183.6 153.154 183.974C154.575 184.498 155.902 185.264 157.136 186.274C158.37 187.246 159.343 188.405 160.053 189.751C160.801 191.098 161.175 192.593 161.175 194.239C161.175 195.809 160.801 197.398 160.053 199.006C158.894 201.437 157.248 203.643 155.117 205.625C153.023 207.607 150.574 209.177 147.769 210.337C144.965 211.533 141.917 212.131 138.627 212.131ZM137.168 210.28C140.01 210.28 142.665 209.738 145.133 208.654C147.601 207.532 149.77 206.055 151.639 204.223C153.509 202.353 154.949 200.315 155.958 198.109C156.37 197.249 156.65 196.426 156.8 195.641C156.987 194.856 157.08 194.108 157.08 193.397C157.08 191.415 156.501 189.751 155.341 188.405C154.22 187.059 152.817 186.05 151.135 185.376C149.489 184.666 147.844 184.311 146.199 184.311C144.628 184.311 143.301 184.61 142.216 185.208C141.842 185.395 141.525 185.489 141.263 185.489C140.814 185.489 140.59 185.339 140.59 185.04C140.59 184.928 140.889 184.816 141.487 184.703C142.123 184.591 142.908 184.479 143.843 184.367C144.778 184.217 145.731 184.086 146.704 183.974C147.713 183.862 148.573 183.769 149.284 183.694C150.032 183.582 150.518 183.488 150.742 183.413C150.256 183.376 149.788 183.338 149.34 183.301C148.891 183.264 148.816 183.245 149.115 183.245H149.171C150.293 183.245 150.854 183.282 150.854 183.357C150.854 183.357 150.817 183.376 150.742 183.413C151.116 183.451 151.396 183.488 151.583 183.525V183.189C151.583 182.291 150.91 181.618 149.564 181.17C148.255 180.721 146.666 180.497 144.796 180.497C143.637 180.497 142.385 180.59 141.038 180.777C139.73 180.927 138.421 181.188 137.112 181.562C133.597 182.535 130.755 183.843 128.586 185.489C126.418 187.097 124.847 188.891 123.875 190.873C122.903 192.818 122.417 194.781 122.417 196.763C122.417 198.745 122.847 200.652 123.707 202.484C124.567 204.279 125.763 205.831 127.296 207.139C128.867 208.411 130.662 209.29 132.681 209.776C134.214 210.112 135.71 210.28 137.168 210.28ZM166.396 214.375C165.648 214.375 164.993 214.076 164.432 213.478C163.909 212.917 163.647 212.281 163.647 211.571C163.647 211.346 163.666 211.178 163.703 211.066C164.077 209.645 164.769 208.616 165.779 207.981C166.788 207.345 167.966 206.915 169.312 206.691C169.125 205.943 169.032 205.139 169.032 204.279C169.032 202.671 169.237 200.839 169.649 198.782C170.097 196.725 170.584 194.669 171.107 192.612C171.668 190.555 172.154 188.686 172.565 187.003C173.014 185.32 173.239 184.03 173.239 183.133C173.239 182.609 173.164 182.273 173.014 182.123C172.678 181.674 172.509 181.263 172.509 180.889C172.509 180.366 172.827 179.973 173.463 179.711C174.136 179.45 174.903 179.319 175.763 179.319C176.473 179.319 177.165 179.412 177.838 179.599C178.548 179.749 179.147 179.992 179.633 180.328C179.932 180.553 180.082 180.927 180.082 181.45C180.082 182.273 179.82 183.395 179.296 184.816C178.81 186.236 178.174 187.863 177.389 189.695C176.604 191.49 175.819 193.36 175.033 195.304C174.248 197.249 173.556 199.175 172.958 201.082C172.397 202.989 172.061 204.746 171.948 206.354C172.21 206.317 172.453 206.298 172.678 206.298C172.939 206.298 173.201 206.298 173.463 206.298C176.903 206.186 179.801 206.392 182.157 206.915C184.55 207.401 186.532 208.018 188.102 208.766C189.71 209.514 191.057 210.187 192.141 210.785C193.225 211.384 194.198 211.72 195.058 211.795C196.03 211.982 196.516 212.169 196.516 212.356C196.516 212.468 196.385 212.58 196.123 212.692C195.301 213.141 194.478 213.365 193.655 213.365C192.534 213.365 191.262 213.048 189.841 212.412C188.458 211.814 186.607 211.178 184.288 210.505C183.241 210.206 182.026 209.925 180.642 209.663C179.296 209.364 177.875 209.215 176.38 209.215C175.707 209.215 175.033 209.252 174.36 209.327C173.687 209.402 173.014 209.514 172.341 209.663C172.453 210.112 172.622 210.467 172.846 210.729C172.958 210.916 172.846 211.01 172.509 211.01C172.173 211.01 171.687 210.654 171.051 209.944C170.116 210.206 169.107 210.636 168.022 211.234C167.499 211.533 167.237 211.87 167.237 212.244C167.237 212.505 167.293 212.767 167.405 213.029C167.555 213.291 167.63 213.534 167.63 213.758C167.63 213.982 167.461 214.151 167.125 214.263C166.826 214.338 166.583 214.375 166.396 214.375ZM203.697 212.58C203.435 212.58 203.136 212.393 202.8 212.019C202.501 211.683 202.22 211.047 201.958 210.112C200.388 210.224 199.079 210.28 198.032 210.28C197.696 210.28 197.396 210.262 197.135 210.224C196.91 210.224 196.742 210.206 196.63 210.168C196.48 210.131 196.237 210.056 195.901 209.944C195.602 209.832 195.321 209.682 195.059 209.495C194.835 209.308 194.76 209.121 194.835 208.934C195.134 208.486 195.489 208.074 195.901 207.7C196.349 207.326 197.228 207.139 198.537 207.139C199.06 207.139 199.416 207.158 199.603 207.195C199.827 207.233 199.939 207.289 199.939 207.364C199.939 207.476 199.79 207.588 199.49 207.7C199.191 207.812 199.042 207.906 199.042 207.981C199.042 208.018 199.21 208.037 199.547 208.037C199.734 208.037 199.995 208.037 200.332 208.037C200.668 207.999 201.042 207.962 201.454 207.925C201.454 207.775 201.435 207.626 201.398 207.476C201.398 207.289 201.398 207.121 201.398 206.971C201.398 205.363 201.622 203.419 202.071 201.138C202.557 198.857 203.174 196.482 203.922 194.014C204.707 191.509 205.53 189.134 206.39 186.891C207.287 184.647 208.128 182.74 208.914 181.17C207.306 181.431 205.81 181.674 204.426 181.899C203.043 182.123 201.921 182.31 201.061 182.46C200.201 182.572 199.715 182.609 199.603 182.572C199.191 182.348 198.986 181.861 198.986 181.114C198.986 180.366 199.191 179.618 199.603 178.87C200.051 178.122 200.594 177.748 201.229 177.748C201.715 177.748 202.108 177.935 202.407 178.309C202.706 178.683 203.192 178.87 203.866 178.87C203.94 178.87 204.034 178.87 204.146 178.87C204.258 178.833 204.389 178.795 204.539 178.758C204.95 178.646 205.754 178.552 206.95 178.477C208.184 178.365 209.587 178.29 211.157 178.253C211.718 177.879 212.316 177.636 212.952 177.524C213.588 177.374 214.205 177.299 214.803 177.299C215.439 177.299 215.981 177.374 216.43 177.524C216.916 177.636 217.234 177.804 217.383 178.029C218.019 178.029 218.599 178.029 219.122 178.029C219.683 177.991 220.206 177.973 220.693 177.973C221.553 177.973 222.263 177.991 222.824 178.029C223.385 178.029 223.721 178.066 223.834 178.141C224.133 178.253 224.338 178.384 224.451 178.533C224.563 178.683 224.619 178.814 224.619 178.926C224.619 179.225 224.451 179.468 224.114 179.655C223.777 179.805 223.572 179.805 223.497 179.655C223.497 179.468 223.104 179.375 222.319 179.375C221.683 179.375 220.842 179.431 219.795 179.543C218.748 179.655 217.57 179.805 216.261 179.992C215.027 181.824 213.775 183.937 212.503 186.33C211.269 188.686 210.11 191.154 209.026 193.734C207.941 196.277 206.988 198.763 206.165 201.194C205.38 203.624 204.819 205.831 204.482 207.812C205.903 207.738 207.38 207.682 208.914 207.644C210.484 207.607 211.905 207.588 213.176 207.588C214.336 207.588 215.252 207.626 215.925 207.7C216.635 207.738 216.897 207.831 216.71 207.981C215.962 208.616 215.196 209.065 214.41 209.327C213.663 209.551 212.69 209.682 211.494 209.72C210.297 209.757 208.652 209.813 206.558 209.888C206.184 209.888 205.791 209.907 205.38 209.944C205.006 209.944 204.632 209.963 204.258 210C204.221 210.71 204.221 211.402 204.258 212.075C204.258 212.412 204.071 212.58 203.697 212.58ZM222.841 211.627C222.841 212.075 222.635 212.001 222.224 211.402C221.85 210.841 221.476 209.776 221.102 208.205C221.027 207.869 220.971 207.513 220.934 207.139C220.896 206.728 220.877 206.317 220.877 205.905C220.877 204.26 221.083 202.372 221.494 200.24C221.906 198.072 222.411 195.828 223.009 193.51C223.645 191.154 224.262 188.873 224.86 186.667C225.458 184.46 225.963 182.497 226.374 180.777C226.786 179.02 226.991 177.692 226.991 176.795C226.991 176.346 226.954 176.047 226.879 175.897C226.804 175.748 226.767 175.617 226.767 175.505C226.767 175.131 227.066 174.944 227.664 174.944C228.3 174.944 229.085 175.187 230.02 175.673C230.955 176.122 231.759 176.795 232.432 177.692C233.105 178.59 233.367 179.655 233.217 180.889C233.217 181.001 233.199 181.114 233.161 181.226C233.161 181.338 233.142 181.469 233.105 181.618C234.264 182.852 235.311 184.311 236.246 185.993C237.181 187.676 238.153 189.452 239.163 191.322C240.21 193.154 241.406 194.987 242.753 196.819C242.753 196.894 242.958 197.23 243.37 197.828C243.818 198.389 244.379 199.1 245.052 199.96C245.725 200.783 246.436 201.643 247.184 202.54C247.969 203.437 248.661 204.26 249.259 205.008V204.447C249.334 203.849 249.483 202.764 249.708 201.194C249.97 199.623 250.269 197.791 250.605 195.697C250.979 193.566 251.372 191.378 251.783 189.134C252.194 186.891 252.606 184.778 253.017 182.796C253.428 180.777 253.821 179.113 254.195 177.804C254.195 177.804 254.382 177.767 254.756 177.692C255.13 177.617 255.504 177.58 255.878 177.58C256.289 177.58 256.626 177.636 256.887 177.748C257.186 177.86 257.336 178.103 257.336 178.477C257.336 178.664 257.317 178.814 257.28 178.926C257.093 179.562 256.813 180.646 256.439 182.179C256.065 183.712 255.635 185.526 255.149 187.62C254.662 189.714 254.139 191.902 253.578 194.183C253.054 196.464 252.531 198.688 252.007 200.857C251.484 203.026 250.998 204.952 250.549 206.635L250.886 206.915C251.521 207.439 251.951 207.906 252.176 208.317C252.4 208.691 252.512 208.972 252.512 209.159C252.512 209.42 252.325 209.551 251.951 209.551C251.465 209.551 250.792 209.364 249.932 208.99C249.708 209.776 249.502 210.393 249.315 210.841C249.128 211.29 249.053 211.514 249.091 211.514C249.053 211.552 248.979 211.571 248.866 211.571C248.605 211.571 248.474 211.271 248.474 210.673C248.474 210.374 248.511 210.019 248.586 209.607C248.661 209.196 248.717 208.747 248.754 208.261C246.735 206.952 244.847 205.419 243.089 203.662C241.369 201.867 239.686 199.922 238.041 197.828C236.882 196.333 235.891 195.099 235.068 194.126C234.283 193.117 233.535 192.219 232.825 191.434C232.152 190.612 231.422 189.733 230.637 188.798C229.852 190.63 228.992 192.556 228.057 194.575C227.16 196.594 226.281 198.576 225.421 200.521C224.598 202.428 223.925 204.204 223.402 205.849C222.878 207.457 222.616 208.803 222.616 209.888C222.616 210.075 222.616 210.243 222.616 210.393C222.654 210.58 222.691 210.748 222.728 210.897C222.766 211.047 222.785 211.178 222.785 211.29C222.822 211.44 222.841 211.552 222.841 211.627ZM280.696 214.095C280.36 214.095 279.967 214.02 279.518 213.87C278.696 213.608 278.041 213.347 277.555 213.085C277.069 212.823 276.714 212.356 276.489 211.683C276.265 211.047 276.097 210 275.985 208.542C275.947 208.093 276.003 207.27 276.153 206.074C276.34 204.84 276.602 203.419 276.938 201.811C277.275 200.203 277.667 198.576 278.116 196.931C278.602 195.286 279.126 193.809 279.687 192.5C279.126 192.986 278.434 193.79 277.611 194.912C276.789 196.034 275.854 197.324 274.807 198.782C273.797 200.24 272.675 201.755 271.441 203.325C270.245 204.858 268.955 206.298 267.571 207.644C267.048 208.168 266.375 208.654 265.552 209.103C264.767 209.551 263.963 209.869 263.14 210.056C262.317 210.28 261.588 210.355 260.953 210.28C260.803 210.28 260.485 210.187 259.999 210C259.55 209.776 259.12 209.383 258.709 208.822C258.298 208.261 258.092 207.42 258.092 206.298C258.092 205.55 258.223 204.335 258.485 202.652C258.746 200.932 259.139 198.95 259.662 196.707C260.186 194.463 260.84 192.163 261.626 189.808C262.448 187.414 263.402 185.171 264.486 183.077C265.571 180.983 266.786 179.244 268.132 177.86C268.543 177.449 269.254 177.075 270.263 176.739C271.31 176.402 272.208 176.234 272.956 176.234C273.778 176.234 274.19 176.439 274.19 176.851C274.19 176.963 274.096 177.169 273.909 177.468C272.152 180.048 270.581 182.647 269.198 185.264C267.852 187.882 266.711 190.406 265.776 192.836C264.841 195.267 264.131 197.511 263.645 199.567C263.159 201.586 262.916 203.269 262.916 204.615C262.916 205.662 263.065 206.466 263.364 207.027C263.701 207.588 264.187 207.812 264.823 207.7C265.458 207.588 266.3 206.971 267.347 205.849C268.431 204.728 269.646 203.307 270.993 201.586C272.339 199.866 273.722 198.015 275.143 196.034C276.602 194.014 278.004 192.07 279.35 190.2C280.696 188.331 281.912 186.704 282.996 185.32C284.08 183.899 284.922 182.927 285.52 182.404C285.819 182.142 286.062 181.974 286.249 181.899C286.474 181.787 286.66 181.731 286.81 181.731C287.221 181.731 287.427 182.011 287.427 182.572C287.427 182.871 287.371 183.133 287.259 183.357C286.922 183.993 286.474 184.965 285.913 186.274C285.352 187.583 284.753 189.116 284.118 190.873C283.519 192.593 282.94 194.426 282.379 196.37C281.855 198.277 281.407 200.203 281.033 202.147C280.696 204.054 280.528 205.849 280.528 207.532C280.528 209.215 280.752 210.673 281.201 211.907C281.425 212.468 281.538 212.935 281.538 213.309C281.538 213.833 281.257 214.095 280.696 214.095ZM286.24 217.628C285.791 217.628 285.566 217.46 285.566 217.123C285.566 216.824 285.716 216.506 286.015 216.17C287.922 213.59 290.147 211.066 292.69 208.598C295.27 206.13 298 203.718 300.879 201.362C303.758 199.006 306.656 196.744 309.573 194.575C309.087 192.855 308.545 191.247 307.946 189.751C307.348 188.256 306.656 186.984 305.871 185.937C305.123 184.853 304.263 184.161 303.291 183.862C302.543 183.6 301.72 183.469 300.823 183.469C299.103 183.469 297.364 183.955 295.607 184.928C293.849 185.9 292.316 187.171 291.007 188.742C290.895 188.854 290.615 188.91 290.166 188.91C289.605 188.91 289.324 188.761 289.324 188.461C289.324 188.312 289.381 188.162 289.493 188.013C290.016 187.302 290.764 186.423 291.736 185.376C292.746 184.292 293.886 183.226 295.158 182.179C296.467 181.095 297.813 180.197 299.196 179.487C300.58 178.777 301.945 178.421 303.291 178.421C304.488 178.421 305.609 178.814 306.656 179.599C307.741 180.384 308.638 181.749 309.349 183.694C309.685 184.516 310.153 185.694 310.751 187.227C311.387 188.723 312.097 190.35 312.882 192.107C316.883 189.191 320.585 186.536 323.988 184.142C327.391 181.712 330.027 179.637 331.897 177.916C332.607 177.281 333.337 176.813 334.084 176.514C334.832 176.178 335.449 176.009 335.935 176.009C336.534 176.009 336.833 176.196 336.833 176.57C336.833 176.982 336.403 177.599 335.543 178.421C334.533 179.319 332.907 180.534 330.663 182.067C328.419 183.6 325.82 185.358 322.866 187.34C319.912 189.321 316.827 191.472 313.612 193.79C314.359 195.473 315.126 197.155 315.911 198.838C316.696 200.521 317.444 202.073 318.155 203.494C318.903 204.877 319.538 205.999 320.062 206.859C320.698 207.794 321.333 208.467 321.969 208.878C322.605 209.29 323.24 209.495 323.876 209.495C324.736 209.495 325.559 209.233 326.344 208.71C327.129 208.186 327.896 207.569 328.644 206.859C329.392 206.111 330.065 205.401 330.663 204.728C330.85 204.503 331.037 204.316 331.224 204.167C331.411 203.98 331.579 203.886 331.729 203.886C331.878 203.886 331.953 204.017 331.953 204.279C331.953 204.503 331.878 204.821 331.729 205.232C331.429 206.092 330.85 206.952 329.99 207.812C329.13 208.635 328.101 209.383 326.905 210.056C325.708 210.729 324.437 211.271 323.091 211.683C321.782 212.094 320.492 212.3 319.221 212.3C318.024 212.3 316.921 212.075 315.911 211.627C314.902 211.178 314.098 210.449 313.499 209.439C313.163 208.803 312.808 207.812 312.434 206.466C312.097 205.12 311.742 203.568 311.368 201.811C310.994 200.053 310.564 198.258 310.078 196.426C307.46 198.371 304.899 200.39 302.393 202.484C299.926 204.578 297.626 206.691 295.494 208.822C293.4 210.954 291.605 213.066 290.11 215.16C289.511 215.983 288.838 216.6 288.091 217.011C287.343 217.423 286.726 217.628 286.24 217.628Z" fill="#036D2B"/>
<defs>
<linearGradient id="paint0_linear_3_17" x1="192.95" y1="0" x2="192.95" y2="385.9" gradientUnits="userSpaceOnUse">
<stop/>
<stop offset="0.5" stop-color="#044700"/>
<stop offset="1"/>
</linearGradient>
</defs>
</svg>
