<svg width="386" height="386" viewBox="0 0 386 386" fill="none" xmlns="http://www.w3.org/2000/svg">
<circle cx="192.95" cy="192.95" r="192.95" fill="url(#paint0_linear_3_2)"/>
<path d="M64.5971 153.11H76.376V194.336L50.855 174.592V192.373H39.0761V151.146L64.5971 170.89V153.11ZM92.7368 192.373V182.557H112.537V192.373H92.7368ZM92.7368 162.925V153.11H112.537V162.925H92.7368ZM92.7368 176.948V167.413H111.415V176.948H92.7368ZM84.2111 153.11H95.99V192.373H84.2111V153.11ZM130.641 172.741C130.641 174.648 130.996 176.331 131.706 177.789C132.417 179.248 133.426 180.388 134.735 181.211C136.044 181.996 137.614 182.389 139.447 182.389C141.279 182.389 142.85 181.996 144.158 181.211C145.467 180.388 146.477 179.248 147.187 177.789C147.898 176.331 148.253 174.648 148.253 172.741C148.253 170.797 147.916 169.114 147.243 167.693C146.57 166.235 145.579 165.113 144.27 164.328C142.999 163.505 141.391 163.094 139.447 163.094C137.614 163.094 136.044 163.505 134.735 164.328C133.426 165.113 132.417 166.235 131.706 167.693C130.996 169.114 130.641 170.797 130.641 172.741ZM117.572 172.741C117.572 169.6 118.132 166.758 119.254 164.215C120.376 161.673 121.928 159.485 123.91 157.653C125.892 155.821 128.21 154.418 130.865 153.446C133.52 152.474 136.38 151.988 139.447 151.988C142.588 151.988 145.486 152.474 148.141 153.446C150.796 154.418 153.114 155.821 155.096 157.653C157.078 159.485 158.611 161.673 159.695 164.215C160.78 166.758 161.322 169.6 161.322 172.741C161.322 175.882 160.78 178.761 159.695 181.379C158.648 183.959 157.152 186.203 155.208 188.11C153.264 190.017 150.945 191.475 148.253 192.485C145.598 193.532 142.663 194.055 139.447 194.055C136.231 194.055 133.277 193.532 130.584 192.485C127.93 191.475 125.63 190.017 123.685 188.11C121.741 186.203 120.227 183.959 119.142 181.379C118.095 178.761 117.572 175.882 117.572 172.741ZM166.922 153.11H179.262V181.996H195.248V192.373H166.922V153.11ZM199.185 153.11H211.805V192.373H199.185V153.11ZM245.192 153.11H256.971V194.336L231.45 174.592V192.373H219.671V151.146L245.192 170.89V153.11ZM264.525 153.11H276.865V178.35C276.865 179.921 277.258 181.211 278.043 182.22C278.866 183.193 280.119 183.679 281.801 183.679C283.484 183.679 284.718 183.193 285.503 182.22C286.326 181.211 286.737 179.921 286.737 178.35V153.11H299.077V179.472C299.077 182.276 298.61 184.651 297.675 186.595C296.777 188.502 295.525 190.054 293.917 191.251C292.309 192.41 290.458 193.251 288.364 193.775C286.307 194.336 284.12 194.616 281.801 194.616C279.483 194.616 277.277 194.336 275.183 193.775C273.126 193.251 271.294 192.41 269.686 191.251C268.078 190.054 266.806 188.502 265.872 186.595C264.974 184.651 264.525 182.276 264.525 179.472V153.11ZM329.371 153.11H344.796L332.063 172.517L345.637 192.373H330.212L324.267 181.379L318.153 192.373H302.728L316.638 172.517L304.13 153.11H319.555L324.379 162.589L329.371 153.11Z" fill="url(#paint1_linear_3_2)"/>
<path d="M64.5971 232.79L76.376 232.79L76.376 191.564L50.855 211.308L50.855 193.527L39.0761 193.527L39.0761 234.753L64.5971 215.01L64.5971 232.79ZM92.7368 193.527L92.7368 203.343L112.537 203.343L112.537 193.527L92.7368 193.527ZM92.7368 222.975L92.7368 232.79L112.537 232.79L112.537 222.975L92.7368 222.975ZM92.7368 208.952L92.7368 218.487L111.415 218.487L111.415 208.952L92.7368 208.952ZM84.2111 232.79L95.99 232.79L95.99 193.527L84.2111 193.527L84.2111 232.79ZM130.641 213.159C130.641 211.252 130.996 209.569 131.706 208.111C132.417 206.652 133.426 205.512 134.735 204.689C136.044 203.904 137.614 203.511 139.447 203.511C141.279 203.511 142.85 203.904 144.158 204.689C145.467 205.512 146.477 206.652 147.187 208.111C147.898 209.569 148.253 211.252 148.253 213.159C148.253 215.103 147.916 216.786 147.243 218.207C146.57 219.665 145.579 220.787 144.27 221.572C142.999 222.395 141.391 222.806 139.447 222.806C137.614 222.806 136.044 222.395 134.735 221.572C133.426 220.787 132.417 219.665 131.706 218.207C130.996 216.786 130.641 215.103 130.641 213.159ZM117.572 213.159C117.572 216.3 118.132 219.142 119.254 221.684C120.376 224.227 121.928 226.415 123.91 228.247C125.892 230.079 128.21 231.482 130.865 232.454C133.52 233.426 136.38 233.912 139.447 233.912C142.588 233.912 145.486 233.426 148.141 232.454C150.796 231.482 153.114 230.079 155.096 228.247C157.078 226.415 158.611 224.227 159.695 221.684C160.78 219.142 161.322 216.3 161.322 213.159C161.322 210.018 160.78 207.138 159.695 204.521C158.648 201.941 157.152 199.697 155.208 197.79C153.264 195.883 150.945 194.425 148.253 193.415C145.598 192.368 142.663 191.845 139.447 191.845C136.231 191.845 133.277 192.368 130.584 193.415C127.93 194.425 125.63 195.883 123.685 197.79C121.741 199.697 120.227 201.941 119.142 204.521C118.095 207.138 117.572 210.018 117.572 213.159ZM166.922 232.79L179.262 232.79L179.262 203.904L195.248 203.904L195.248 193.527L166.922 193.527L166.922 232.79ZM199.185 232.79L211.805 232.79L211.805 193.527L199.185 193.527L199.185 232.79ZM245.192 232.79L256.971 232.79L256.971 191.564L231.45 211.308L231.45 193.527L219.671 193.527L219.671 234.753L245.192 215.01L245.192 232.79ZM264.525 232.79L276.865 232.79L276.865 207.55C276.865 205.979 277.258 204.689 278.043 203.68C278.866 202.707 280.119 202.221 281.801 202.221C283.484 202.221 284.718 202.707 285.503 203.68C286.326 204.689 286.737 205.979 286.737 207.55L286.737 232.79L299.077 232.79L299.077 206.428C299.077 203.623 298.61 201.249 297.675 199.304C296.777 197.397 295.525 195.846 293.917 194.649C292.309 193.49 290.458 192.648 288.364 192.125C286.307 191.564 284.12 191.284 281.801 191.284C279.483 191.284 277.277 191.564 275.183 192.125C273.126 192.648 271.294 193.49 269.686 194.649C268.078 195.846 266.806 197.397 265.872 199.304C264.974 201.249 264.525 203.623 264.525 206.428L264.525 232.79ZM329.371 232.79L344.796 232.79L332.063 213.383L345.637 193.527L330.212 193.527L324.267 204.521L318.153 193.527L302.728 193.527L316.638 213.383L304.13 232.79L319.555 232.79L324.379 223.311L329.371 232.79Z" fill="url(#paint2_linear_3_2)" fill-opacity="0.1"/>
<defs>
<linearGradient id="paint0_linear_3_2" x1="192.95" y1="0" x2="192.95" y2="385.9" gradientUnits="userSpaceOnUse">
<stop/>
<stop offset="0.5" stop-color="#333333"/>
<stop offset="1"/>
</linearGradient>
<linearGradient id="paint1_linear_3_2" x1="35.1498" y1="165.279" x2="350.75" y2="165.279" gradientUnits="userSpaceOnUse">
<stop stop-color="white"/>
<stop offset="0.25" stop-color="#036D2B"/>
<stop offset="0.5" stop-color="#9900FF"/>
<stop offset="0.75" stop-color="#00447C"/>
<stop offset="1" stop-color="#999999"/>
</linearGradient>
<linearGradient id="paint2_linear_3_2" x1="350.376" y1="220.621" x2="35.1498" y2="220.621" gradientUnits="userSpaceOnUse">
<stop stop-color="#999999"/>
<stop offset="0.25" stop-color="#00447C"/>
<stop offset="0.5" stop-color="#9900FF"/>
<stop offset="0.75" stop-color="#036D2B"/>
<stop offset="1" stop-color="white"/>
</linearGradient>
</defs>
</svg>
