<svg width="386" height="386" viewBox="0 0 386 386" fill="none" xmlns="http://www.w3.org/2000/svg">
<path d="M192.95 385.9C299.513 385.9 385.9 299.513 385.9 192.95C385.9 86.3866 299.513 0 192.95 0C86.3866 0 0 86.3866 0 192.95C0 299.513 86.3866 385.9 192.95 385.9Z" fill="url(#paint0_linear_3_15)"/>
<path d="M124.719 283V101.182H203.199C216.693 101.182 228.501 103.638 238.621 108.55C248.742 113.463 256.614 120.536 262.237 129.768C267.859 139.001 270.67 150.069 270.67 162.972C270.67 175.992 267.77 186.971 261.97 195.908C256.229 204.845 248.15 211.593 237.734 216.15C227.376 220.707 215.273 222.986 201.423 222.986H154.548V184.634H191.48C197.28 184.634 202.222 183.923 206.306 182.503C210.449 181.023 213.616 178.685 215.805 175.489C218.054 172.293 219.179 168.121 219.179 162.972C219.179 157.763 218.054 153.531 215.805 150.276C213.616 146.962 210.449 144.535 206.306 142.996C202.222 141.398 197.28 140.599 191.48 140.599H174.08V283H124.719ZM231.253 199.548L276.707 283H223.085L178.696 199.548H231.253Z" fill="white"/>
<defs>
<linearGradient id="paint0_linear_3_15" x1="192.95" y1="0" x2="192.95" y2="385.9" gradientUnits="userSpaceOnUse">
<stop stop-color="#FF8000"/>
<stop offset="1" stop-color="#994D00"/>
</linearGradient>
</defs>
</svg>
